HIERARCHY
ROOT root
{
  OFFSET 0 98.6856 0
  CHANNELS 6 Xposition Yposition Zposition Zrotation Xrotation Yrotation
  JOINT torso_1
  {
    OFFSET 0 5.37224 -1.21793
    CHANNELS 6 Xposition Yposition Zposition Zrotation Xrotation Yrotation
    JOINT torso_2
    {
      OFFSET 0 5.94127 1.13336
      CHANNELS 6 Xposition Yposition Zposition Zrotation Xrotation Yrotation
      JOINT torso_3
      {
        OFFSET -1.08535e-17 6.33601 0.121658
        CHANNELS 6 Xposition Yposition Zposition Zrotation Xrotation Yrotation
        JOINT torso_4
        {
          OFFSET -1.16841e-17 6.88189 -0.46916
          CHANNELS 6 Xposition Yposition Zposition Zrotation Xrotation Yrotation
          JOINT torso_5
          {
            OFFSET -2.08699e-17 8.0451 -1.59297
            CHANNELS 6 Xposition Yposition Zposition Zrotation Xrotation Yrotation
            JOINT torso_6
            {
              OFFSET -2.67949e-17 10.0463 -0.967353
              CHANNELS 6 Xposition Yposition Zposition Zrotation Xrotation Yrotation
              JOINT torso_7
              {
                OFFSET -3.07187e-17 11.1612 1.66806
                CHANNELS 6 Xposition Yposition Zposition Zrotation Xrotation Yrotation
                JOINT neck_1
                {
                  OFFSET -1.36661e-17 5.06312 0.756688
                  CHANNELS 6 Xposition Yposition Zposition Zrotation Xrotation Yrotation
                  JOINT neck_2
                  {
                    OFFSET -1.91632e-17 5.09976 0.446172
                    CHANNELS 6 Xposition Yposition Zposition Zrotation Xrotation Yrotation
                    JOINT head
                    {
                      OFFSET -2.12574e-17 5.10962 0.809285
                      CHANNELS 6 Xposition Yposition Zposition Zrotation Xrotation Yrotation
                      End Site
                      {
                        OFFSET 0 0.1 0
                      }
                    }
                  }
                }
                JOINT l_shoulder
                {
                  OFFSET 1.30426 -8.04703 7.96922
                  CHANNELS 6 Xposition Yposition Zposition Zrotation Xrotation Yrotation
                  JOINT l_up_arm
                  {
                    OFFSET 13.7035 3.43734 -3.45766
                    CHANNELS 6 Xposition Yposition Zposition Zrotation Xrotation Yrotation
                    JOINT l_low_arm
                    {
                      OFFSET 30.8964 0.0632652 0.14496
                      CHANNELS 6 Xposition Yposition Zposition Zrotation Xrotation Yrotation
                      JOINT l_hand
                      {
                        OFFSET 25.6348 0.0524902 0.120274
                        CHANNELS 6 Xposition Yposition Zposition Zrotation Xrotation Yrotation
                        End Site
                        {
                          OFFSET 0.1 0 0
                        }
                      }
                    }
                  }
                }
                JOINT r_shoulder
                {
                  OFFSET -1.30426 -8.04702 7.96912
                  CHANNELS 6 Xposition Yposition Zposition Zrotation Xrotation Yrotation
                  JOINT r_up_arm
                  {
                    OFFSET -13.7035 3.43734 -3.45766
                    CHANNELS 6 Xposition Yposition Zposition Zrotation Xrotation Yrotation
                    JOINT r_low_arm
                    {
                      OFFSET -30.8964 0.0632652 0.14496
                      CHANNELS 6 Xposition Yposition Zposition Zrotation Xrotation Yrotation
                      JOINT r_hand
                      {
                        OFFSET -25.6348 0.0524901 0.120274
                        CHANNELS 6 Xposition Yposition Zposition Zrotation Xrotation Yrotation
                        End Site
                        {
                          OFFSET -0.1 0 0
                        }
                      }
                    }
                  }
                }
              }
            }
          }
        }
      }
    }
  }
  JOINT l_up_leg
  {
    OFFSET 9.77065 -4.44866 2.1502
    CHANNELS 6 Xposition Yposition Zposition Zrotation Xrotation Yrotation
    JOINT l_low_leg
    {
      OFFSET -0.901622 -41.0132 -0.693059
      CHANNELS 6 Xposition Yposition Zposition Zrotation Xrotation Yrotation
      JOINT l_foot
      {
        OFFSET -2.46068 -42.7371 -6.39839
        CHANNELS 6 Xposition Yposition Zposition Zrotation Xrotation Yrotation
        JOINT l_toes
        {
          OFFSET 0.82413 -10.4558 13.2182
          CHANNELS 6 Xposition Yposition Zposition Zrotation Xrotation Yrotation
          End Site
          {
            OFFSET 0 0 0.1
          }
        }
      }
    }
  }
  JOINT r_up_leg
  {
    OFFSET -9.77065 -4.44866 2.1502
    CHANNELS 6 Xposition Yposition Zposition Zrotation Xrotation Yrotation
    JOINT r_low_leg
    {
      OFFSET 0.901622 -41.0132 -0.693059
      CHANNELS 6 Xposition Yposition Zposition Zrotation Xrotation Yrotation
      JOINT r_foot
      {
        OFFSET 2.46068 -42.7371 -6.39839
        CHANNELS 6 Xposition Yposition Zposition Zrotation Xrotation Yrotation
        JOINT r_toes
        {
          OFFSET -0.82413 -10.4558 13.2182
          CHANNELS 6 Xposition Yposition Zposition Zrotation Xrotation Yrotation
          End Site
          {
            OFFSET 0 0 0.1
          }
        }
      }
    }
  }
}
MOTION
Frames: 4
Frame Time: 0.02
-49.1962 88.4369 1200.29 -11.5083 -16.5762 -161.733 0 5.37224 -1.21793 -6.24406 1.20655 -1.89417 0 5.94127 1.13336 -4.86537 2.07018 -2.47037 -1.08535e-17 6.33601 0.121658 -3.48857 3.92122 -2.18528 -1.16841e-17 6.88189 -0.46916 -2.02188 6.46803 -2.06453 -2.08699e-17 8.0451 -1.59297 -1.13373 7.61458 -1.67917 -2.67949e-17 10.0463 -0.967353 -0.177875 8.80684 -1.69018 -3.07187e-17 11.1612 1.66806 -0.00541159 -0.00211752 0.0265414 -1.36661e-17 5.06312 0.756688 -0.477526 3.6452 -0.922641 -1.91632e-17 5.09976 0.446172 5.98561 -14.0485 -0.0655196 -2.12574e-17 5.10962 0.809285 3.03424 -16.0075 -1.30239 1.30426 -8.04703 7.96922 17.0625 -2.42256 7.41827 13.7035 3.43734 -3.45766 -58.4251 49.5264 -32.447 30.8964 0.0632652 0.14496 11.738 -14.564 -102.964 25.6348 0.0524902 0.120274 4.97816 -22.6082 0.910678 -1.30426 -8.04702 7.96912 -7.38773 -0.263803 -4.8854 -13.7035 3.43734 -3.45766 98.987 30.7826 -21.2111 -30.8964 0.0632652 0.14496 -11.7686 -9.49196 78.3007 -25.6348 0.0524901 0.120274 0.477228 -34.2101 0.695333 9.77065 -4.44866 2.1502 -7.92412 -3.02539 -19.4368 -0.901622 -41.0132 -0.693059 -7.11822 25.1606 1.14293 -2.46068 -42.7371 -6.39839 -6.78793 -4.75394 15.6574 0.82413 -10.4558 13.2182 4.47266e-16 -7.82715e-16 3.05504e-33 -9.77065 -4.44866 2.1502 5.49684 -48.2023 21.1851 0.901622 -41.0132 -0.693059 65.36 74.5105 -50.2876 2.46068 -42.7371 -6.39839 -10.3244 -12.6108 -15.7909 -0.82413 -10.4558 13.2182 -1.98785e-16 -5.8393e-16 -1.27595e-14 
-49.4779 89.7859 1194.95 -10.82 -16.3588 -163.121 0 5.37224 -1.21793 -5.7441 -0.0337131 -2.16885 0 5.94127 1.13336 -4.42331 1.1596 -2.62705 -1.08535e-17 6.33601 0.121658 -3.15458 3.50913 -2.32889 -1.16841e-17 6.88189 -0.46916 -1.76664 6.80781 -2.19911 -2.08699e-17 8.0451 -1.59297 -0.994247 8.47643 -1.8654 -2.67949e-17 10.0463 -0.967353 -0.171881 9.91221 -1.87831 -3.07187e-17 11.1612 1.66806 -0.00133317 -0.0189035 0.0290196 -1.36661e-17 5.06312 0.756688 -0.404781 3.59572 0.536409 -1.91632e-17 5.09976 0.446172 5.61604 -14.3628 0.647083 -2.12574e-17 5.10962 0.809285 1.47549 -16.3589 -1.41095 1.30426 -8.04703 7.96922 17.6194 -3.11675 7.56594 13.7035 3.43734 -3.45766 -56.2821 50.8387 -36.3295 30.8964 0.0632652 0.14496 11.7408 -14.5521 -102.904 25.6348 0.0524902 0.120274 4.39365 -23.8471 1.41286 -1.30426 -8.04702 7.96912 -6.9612 -0.823538 -4.54908 -13.7035 3.43734 -3.45766 98.8652 30.0853 -22.8506 -30.8964 0.0632652 0.14496 -11.8178 -9.73284 79.4771 -25.6348 0.0524901 0.120274 -0.714515 -35.3123 -0.0458233 9.77065 -4.44866 2.1502 -5.98241 2.15631 -18.8025 -0.901622 -41.0132 -0.693059 -4.8038 17.5308 0.432401 -2.46068 -42.7371 -6.39839 -10.6614 6.88422 16.1817 0.82413 -10.4558 13.2182 1.2424e-15 -7.45443e-16 -3.72721e-17 -9.77065 -4.44866 2.1502 6.38639 -51.846 21.617 0.901622 -41.0132 -0.693059 49.9789 71.6965 -35.6473 2.46068 -42.7371 -6.39839 -11.9342 -14.3455 -15.9011 -0.82413 -10.4558 13.2182 -1.98785e-16 -5.8393e-16 -1.27595e-14 
-49.9969 90.8822 1189.64 -9.74458 -16.9902 -164.439 0 5.37224 -1.21793 -5.19818 -1.2171 -2.49524 0 5.94127 1.13336 -3.93508 0.187878 -2.85644 -1.08535e-17 6.33601 0.121658 -2.76349 2.99811 -2.55739 -1.16841e-17 6.88189 -0.46916 -1.43877 6.9902 -2.42657 -2.08699e-17 8.0451 -1.59297 -0.77882 9.14296 -2.16638 -2.67949e-17 10.0463 -0.967353 -0.112331 10.8437 -2.23398 -3.07187e-17 11.1612 1.66806 0.00309997 -0.0321951 0.0283611 -1.36661e-17 5.06312 0.756688 -0.288009 3.89386 1.93462 -1.91632e-17 5.09976 0.446172 5.3216 -14.6324 1.3609 -2.12574e-17 5.10962 0.809285 0.0483507 -17.4157 -0.714902 1.30426 -8.04703 7.96922 18.2698 -3.57476 8.03349 13.7035 3.43734 -3.45766 -53.7836 53.4508 -39.9491 30.8964 0.0632652 0.14496 11.73 -14.5983 -103.136 25.6348 0.0524902 0.120274 5.67225 -23.9639 2.36688 -1.30426 -8.04702 7.96912 -6.59426 -1.3601 -4.30323 -13.7035 3.43734 -3.45766 98.3045 29.4028 -23.4328 -30.8964 0.0632652 0.14496 -11.8358 -9.82773 79.9394 -25.6348 0.0524901 0.120274 -0.966673 -36.6536 -0.252767 9.77065 -4.44866 2.1502 -4.26686 6.00692 -16.9942 -0.901622 -41.0132 -0.693059 -2.8913 10.7282 0.0836906 -2.46068 -42.7371 -6.39839 -14.4583 19.5907 18.0102 0.82413 -10.4558 13.2182 1.74434e-14 7.45443e-16 -1.54058e-15 -9.77065 -4.44866 2.1502 6.74845 -55.1714 21.4048 0.901622 -41.0132 -0.693059 37.5572 67.31 -24.1018 2.46068 -42.7371 -6.39839 -11.9734 -14.9844 -16.0196 -0.82413 -10.4558 13.2182 -2.98177e-15 -4.5969e-16 -1.26353e-14 
-50.5646 91.778 1184.6 -8.79892 -17.7386 -166.006 0 5.37224 -1.21793 -4.60241 -2.25609 -2.72691 0 5.94127 1.13336 -3.42652 -0.676388 -2.98593 -1.08535e-17 6.33601 0.121658 -2.37107 2.5213 -2.6932 -1.16841e-17 6.88189 -0.46916 -1.13679 7.11661 -2.56825 -2.08699e-17 8.0451 -1.59297 -0.597377 9.65668 -2.37785 -2.67949e-17 10.0463 -0.967353 -0.0903638 11.5266 -2.49013 -3.07187e-17 11.1612 1.66806 0.00594077 -0.04353 0.0281992 -1.36661e-17 5.06312 0.756688 -0.201218 3.96694 3.83681 -1.91632e-17 5.09976 0.446172 4.55878 -14.6923 2.33372 -2.12574e-17 5.10962 0.809285 -1.44474 -18.1904 -1.28474 1.30426 -8.04703 7.96922 18.3169 -3.94936 8.21685 13.7035 3.43734 -3.45766 -53.0313 55.1118 -41.139 30.8964 0.0632652 0.14496 11.7456 -14.531 -102.799 25.6348 0.0524902 0.120274 5.76517 -23.8049 2.52166 -1.30426 -8.04702 7.96912 -6.19973 -1.80372 -3.94755 -13.7035 3.43734 -3.45766 97.6121 29.1876 -23.5793 -30.8964 0.0632652 0.14496 -11.8431 -9.86738 80.1324 -25.6348 0.0524901 0.120274 -1.69907 -38.1867 -0.617107 9.77065 -4.44866 2.1502 -3.18825 8.69998 -15.795 -0.901622 -41.0132 -0.693059 -2.09156 7.79177 0.0062354 -2.46068 -42.7371 -6.39839 -16.2453 26.2336 19.0582 0.82413 -10.4558 13.2182 -6.31141e-15 -1.06847e-15 2.85753e-16 -9.77065 -4.44866 2.1502 8.39153 -56.9032 23.2659 0.901622 -41.0132 -0.693059 28.2175 61.523 -15.7825 2.46068 -42.7371 -6.39839 -11.4184 -14.7166 -16.1413 -0.82413 -10.4558 13.2182 -2.18663e-15 -4.96962e-16 -1.26725e-14 
